# xmcd
#
# Track frame offsets:
#	150
#	23817
#	54939
#	87766
#	105652
#	139710
#	150052
#
# Disc length: 2421 seconds
#
# Revision: 0
# Processed by: cddbd v1.5.2PL0 Copyright (c) Steve Scherf et al.
# Submitted via: EasyCDDAExtractor 15.2.5.1
#
DISCID=42097307
DTITLE=Love Unlimited Orchestra - My Musical Bouquet
DYEAR=2007
DGENRE=Soul
TTITLE0=Don't You Know How Much I Love You
TTITLE1=Stay Please And Make Love To Me
TTITLE2=Hey Look At Me, I'm In Love
TTITLE3=Love You, Ooh It's True I Do
TTITLE4=Whisper Softly
TTITLE5=Enter Love's Interlude
TTITLE6=Can't You See
EXTD=
EXTT0=
EXTT1=
EXTT2=
EXTT3=
EXTT4=
EXTT5=
EXTT6=
PLAYORDER=
